<?xml version="1.0" encoding="UTF-8"?>
<svg xmlns="http://www.w3.org/2000/svg" width="1120" height="880" viewBox="0 0 1120 880" role="img" aria-label="i 六院页面结构图"><defs><marker id="arrow" markerWidth="10" markerHeight="10" refX="8" refY="3" orient="auto"><path d="M0,0 L0,6 L9,3 z" fill="#1f9b68"/></marker><marker id="arrowBack" markerWidth="10" markerHeight="10" refX="8" refY="3" orient="auto"><path d="M0,0 L0,6 L9,3 z" fill="#c17a16"/></marker></defs><style>text{font-family:-apple-system,BlinkMacSystemFont,'Segoe UI','PingFang SC','Microsoft YaHei',sans-serif}.title{font-size:26px;font-weight:800;fill:#14201b}.hint{font-size:14px;fill:#5c6f67}.node rect{fill:#ecfbf3;stroke:#28a271;stroke-width:1.5;rx:8}.node.confirm rect{fill:#fff6e8;stroke:#e69a2d}.node-title{font-size:17px;font-weight:800;fill:#14201b}.node-file{font-size:11px;fill:#60746b}.edge{stroke:#1f9b68;stroke-width:2;fill:none}.back{stroke:#c17a16;stroke-width:1.8;fill:none}.edge-label{font-size:12px;fill:#3a4a44;paint-order:stroke;stroke:#f8fbfa;stroke-width:5;stroke-linejoin:round}</style><rect width="100%" height="100%" fill="#f5faf8"/><text x="40" y="38" class="title">i 六院页面结构图</text><text x="40" y="62" class="hint">实线：前进跳转；虚线：返回/上一步</text><path d="M 597.8640563788214 110.25523213371747 L 605.2982212813471 161.95003467408048" class="edge" marker-end="url(#arrow")/><text x="601.5811388300842" y="130.10263340389898" class="edge-label">预约挂号</text><path d="M 557.8640563788214 230.25523213371747 L 565.2982212813471 281.9500346740805" class="edge" marker-end="url(#arrow")/><text x="561.5811388300842" y="250.10263340389895" class="edge-label">按院区挂号 / 去挂号</text><path d="M 476.2743465776177 332.06930010624023 L 282.8293181970084 452.275488116555" class="edge" marker-end="url(#arrow")/><text x="379.551832387313" y="386.1723941113976" class="edge-label">金融城·员村 / 去挂号</text><path d="M 558.0363855392233 350.85198794644236 L 559.3869879551734 431.28307229515264" class="edge" marker-end="url(#arrow")/><text x="558.7116867471983" y="385.0675301207975" class="edge-label">北院区 / 去挂号</text><path d="M 604.8717487756384 330.77397369713344 L 835.8608585421276 453.7232058679097" class="edge" marker-end="url(#arrow")/><text x="720.366303658883" y="386.24858978252155" class="edge-label">知识城 / 去挂号</text><path d="M 210 502 L 210 580" class="edge" marker-end="url(#arrow")/><text x="210" y="535" class="edge-label">睡眠、记忆障碍专科门诊</text><path d="M 280 618 L 500 618" class="edge" marker-end="url(#arrow")/><text x="390" y="612" class="edge-label">预约挂号</text><path d="M 580 652 L 580 730" class="edge" marker-end="url(#arrow")/><text x="580" y="685" class="edge-label">14:30~15:00</text><path d="M 602.1359436211786 165.74476786628253 L 594.7017787186529 114.04996532591952" class="back" stroke-dasharray="7 7" marker-end="url(#arrowBack)"/><text x="598.4188611699158" y="133.89736659610102" class="edge-label">返回首页</text><path d="M 562.1359436211786 285.74476786628253 L 554.7017787186529 234.04996532591952" class="back" stroke-dasharray="7 7" marker-end="url(#arrowBack)"/><text x="558.4188611699158" y="253.89736659610105" class="edge-label">返回预约挂号</text><path d="M 273.7256534223823 453.93069989375977 L 467.1706818029916 333.724511883445" class="back" stroke-dasharray="7 7" marker-end="url(#arrowBack)"/><text x="370.448167612687" y="387.8276058886024" class="edge-label">返回选择院区</text><path d="M 561.9636144607767 435.14801205355764 L 560.6130120448266 354.71692770484736" class="back" stroke-dasharray="7 7" marker-end="url(#arrowBack)"/><text x="561.2883132528017" y="388.9324698792025" class="edge-label">返回选择院区</text><path d="M 845.1282512243616 455.22602630286656 L 614.1391414578724 332.2767941320903" class="back" stroke-dasharray="7 7" marker-end="url(#arrowBack)"/><text x="729.633696341117" y="387.75141021747845" class="edge-label">返回选择院区</text><path d="M 210 584 L 210 506" class="back" stroke-dasharray="7 7" marker-end="url(#arrowBack)"/><text x="210" y="539" class="edge-label">返回金融城员村</text><path d="M 510 618 L 290 618" class="back" stroke-dasharray="7 7" marker-end="url(#arrowBack)"/><text x="400" y="612" class="edge-label">返回专科门诊</text><path d="M 580 734 L 580 656" class="back" stroke-dasharray="7 7" marker-end="url(#arrowBack)"/><text x="580" y="689" class="edge-label">返回医生号源 / 上一步</text><g class="node"><rect x="470" y="40" width="300" height="76"/><text x="620" y="70" text-anchor="middle" class="node-title">i 六院</text><text x="620" y="94" text-anchor="middle" class="node-file">index.html</text></g><g class="node"><rect x="430" y="160" width="300" height="76"/><text x="580" y="190" text-anchor="middle" class="node-title">预约挂号</text><text x="580" y="214" text-anchor="middle" class="node-file">registration/index.html</text></g><g class="node"><rect x="390" y="280" width="300" height="76"/><text x="540" y="310" text-anchor="middle" class="node-title">选择院区</text><text x="540" y="334" text-anchor="middle" class="node-file">registration/campus-select/index.html</text></g><g class="node"><rect x="60" y="430" width="300" height="76"/><text x="210" y="460" text-anchor="middle" class="node-title">金融城·员村</text><text x="210" y="484" text-anchor="middle" class="node-file">registration/campus-select/yuancun/index.html</text></g><g class="node"><rect x="430" y="430" width="300" height="76"/><text x="580" y="460" text-anchor="middle" class="node-title">北院区</text><text x="580" y="484" text-anchor="middle" class="node-file">registration/campus-select/north/index.html</text></g><g class="node"><rect x="760" y="430" width="300" height="76"/><text x="910" y="460" text-anchor="middle" class="node-title">知识城</text><text x="910" y="484" text-anchor="middle" class="node-file">registration/campus-select/knowledge/index.html</text></g><g class="node"><rect x="60" y="580" width="300" height="76"/><text x="210" y="610" text-anchor="middle" class="node-title">睡眠、记忆障碍专科门诊</text><text x="210" y="634" text-anchor="middle" class="node-file">registration/campus-select/yuancun/sleep-memory-clinic/index.html</text></g><g class="node"><rect x="430" y="580" width="300" height="76"/><text x="580" y="610" text-anchor="middle" class="node-title">医生号源</text><text x="580" y="634" text-anchor="middle" class="node-file">registration/campus-select/yuancun/sleep-memory-clinic/doctor-source/index.html</text></g><g class="node confirm"><rect x="430" y="730" width="300" height="76"/><text x="580" y="760" text-anchor="middle" class="node-title">挂号确认</text><text x="580" y="784" text-anchor="middle" class="node-file">registration/campus-select/yuancun/sleep-memory-clinic/doctor-source/appointment-confirm/index.html</text></g></svg>
